<?xml version="1.0" encoding="utf-8"?>
<!-- Generator: Adobe Illustrator 22.1.0, SVG Export Plug-In . SVG Version: 6.00 Build 0)  -->
<svg version="1.1" id="Layer_1" xmlns="http://www.w3.org/2000/svg" xmlns:xlink="http://www.w3.org/1999/xlink" x="0px" y="0px"
	 viewBox="0 0 1105 217" style="enable-background:new 0 0 1105 217;" xml:space="preserve">
<style type="text/css">
	.st0{fill:#93278F;}
	.st1{fill:#FFFFFF;}
</style>
<rect class="st0" width="1105" height="217"/>
<circle class="st1" cx="1002.5" cy="110.5" r="80.5"/>
<circle class="st1" cx="782.5" cy="110.5" r="80.5"/>
<circle class="st1" cx="562.5" cy="110.5" r="80.5"/>
<circle class="st1" cx="342.5" cy="110.5" r="80.5"/>
<circle class="st1" cx="112.5" cy="110.5" r="80.5"/>
<g>
	<g>
		<polygon class="st0" points="766.5,85.2 766.5,134.9 807.2,110 		"/>
		<path class="st0" d="M777.8,18.6c-50.5,0-91.4,40.9-91.4,91.4s40.9,91.4,91.4,91.4c50.5,0,91.4-40.9,91.4-91.4
			S828.3,18.6,777.8,18.6z M754.4,156.5V63.6l76,46.5L754.4,156.5z"/>
	</g>
</g>
<g>
	<g>
		<path class="st0" d="M112.3,18.6c-50.5,0-91.4,40.9-91.4,91.4s40.9,91.4,91.4,91.4s91.4-40.9,91.4-91.4S162.8,18.6,112.3,18.6z
			 M112.3,152.4c-23.4,0-42.4-19-42.4-42.4s19-42.4,42.4-42.4h1.7V51.1l28.6,28.6h-30.3C95.6,79.7,82,93.3,82,110
			s13.6,30.3,30.3,30.3s30.3-13.6,30.3-30.3h12.1C154.7,133.4,135.7,152.4,112.3,152.4z"/>
	</g>
</g>
<g>
	<g>
		<polygon class="st0" points="972.1,134.9 1012.7,110 972.1,85.2 		"/>
		<path class="st0" d="M999.6,18.6c-50.5,0-91.4,40.9-91.4,91.4s40.9,91.4,91.4,91.4s91.4-40.9,91.4-91.4S1050.1,18.6,999.6,18.6z
			 M1034.8,139.2h-12.1v-21.1l-62.8,38.4V63.6l62.8,38.4V80.8h12.1v28.5l1.1,0.7l-1.1,0.7V139.2z"/>
	</g>
</g>
<g>
	<g>
		<path class="st0" d="M555.9,18.6c-50.5,0-91.4,40.9-91.4,91.4s40.9,91.4,91.4,91.4s91.4-40.9,91.4-91.4S606.4,18.6,555.9,18.6z
			 M545.7,139.2h-16.1V80.8h16.1V139.2z M582.2,139.2h-16.1V80.8h16.1V139.2L582.2,139.2z"/>
	</g>
</g>
<g>
	<g>
		<polygon class="st0" points="361.7,85.2 321,110 361.7,134.9 		"/>
		<path class="st0" d="M334.1,201.4c50.5,0,91.4-40.9,91.4-91.4s-40.9-91.4-91.4-91.4s-91.4,40.9-91.4,91.4S283.6,201.4,334.1,201.4
			z M298.9,80.8H311v21.1l62.8-38.4v92.9L311,118.1v21.1h-12.1v-28.5l-1.1-0.7l1.1-0.7V80.8z"/>
	</g>
</g>
</svg>
