<svg xmlns="http://www.w3.org/2000/svg" xmlns:xlink="http://www.w3.org/1999/xlink" width="100" height="100" viewBox="0 0 100 100"><rect width="100%" height="100%" fill="#333333"></rect><g transform="translate(50 50) scale(0.69 0.69) rotate(0) translate(-50 -50)" style="fill:#FFFFFF"><svg fill="#FFFFFF" xmlns="http://www.w3.org/2000/svg" xmlns:xlink="http://www.w3.org/1999/xlink" version="1.1" x="0px" y="0px" viewBox="0 0 100 100" enable-background="new 0 0 100 100" xml:space="preserve"><circle fill="#FFFFFF" cx="49.968" cy="43.877" r="7.741"></circle><path fill="#FFFFFF" d="M73.151,19.487l-6.313-6.313l-1.69-1.745c-8.305-8.572-22.055-8.572-30.359,0l-1.69,1.745l-6.74,6.74  c-0.945,0.945-1.718,2.812-1.718,4.148v1.196c0,0.612,0.361,1.095,0.844,1.321l3.222,1.876c0.901,0.52,2.041,0.356,2.76-0.397  l0.445-0.402c0.871-0.788,2.004-1.224,3.179-1.224h0.825c0.906,0.953,1.678,2.016,2.298,3.16c7.98-2.418,15.83-2.595,23.512,0  c0.621-1.144,1.393-2.207,2.298-3.16h0.917c1.37,0,2.673,0.593,3.573,1.626c0.718,0.753,1.858,0.917,2.76,0.397l3.474-2.023  l-0.022-0.016c0.34-0.26,0.572-0.667,0.572-1.158v-0.592C75.297,22.997,74.331,20.667,73.151,19.487z M49.968,7.233  c7.658,0,13.867,2.718,13.867,6.07c0,1.981-2.168,3.739-5.52,4.847c-0.142-1.53-3.823-3.427-8.347-3.427  c-4.524,0-8.205,1.897-8.347,3.427c-3.352-1.108-5.52-2.867-5.52-4.847C36.102,9.95,42.31,7.233,49.968,7.233z"></path><path fill="#FFFFFF" d="M38.359,29.839l-0.012,0.004c0.953,1.839,1.522,3.876,1.644,5.989l2.991,51.711  c0,9.944,13.974,9.944,13.974,0l2.991-51.711c0.122-2.113,0.692-4.15,1.644-5.989l-0.012-0.004  C54.017,27.488,45.92,27.488,38.359,29.839z M47.899,30.911c0.189-0.727,0.767-1.305,1.494-1.494  c1.627-0.423,3.068,1.017,2.644,2.644c-0.189,0.727-0.767,1.305-1.494,1.494C48.916,33.978,47.476,32.538,47.899,30.911z   M50.39,63.843c-0.04,0.086-0.111,0.157-0.197,0.197c-0.429,0.201-0.847-0.217-0.646-0.646c0.04-0.086,0.111-0.157,0.197-0.197  C50.173,62.997,50.591,63.414,50.39,63.843z M51.957,60.859c-0.182,0.698-0.737,1.253-1.435,1.435  c-1.565,0.408-2.95-0.977-2.542-2.542c0.182-0.698,0.737-1.253,1.435-1.435C50.98,57.909,52.365,59.294,51.957,60.859z   M58.573,47.406c0,4.71-3.853,8.563-8.563,8.563h-0.084c-4.71,0-8.563-3.853-8.563-8.563v-4.218c0-4.71,3.853-8.563,8.563-8.563  h0.084c4.71,0,8.563,3.853,8.563,8.563V47.406z"></path></svg></g></svg>